<svg width="83" height="84" viewBox="0 0 83 84" fill="none" xmlns="http://www.w3.org/2000/svg">
<mask id="mask0_101_103" style="mask-type:alpha" maskUnits="userSpaceOnUse" x="0" y="0" width="83" height="84">
<rect x="0.318359" y="0.59082" width="82.5156" height="82.5156" fill="#D9D9D9"/>
</mask>
<g mask="url(#mask0_101_103)">
<path d="M60.0572 56.8051C59.5988 56.8051 59.2549 56.6195 59.0257 56.2482C58.7965 55.8745 58.7679 55.4872 58.9398 55.0861L64.2689 43.0525H49.6568C49.0264 43.0525 48.4683 42.8084 47.9824 42.3202C47.4942 41.8343 47.2501 41.2762 47.2501 40.6458V25.8618C47.2501 25.2315 47.4942 24.6722 47.9824 24.184C48.4683 23.698 49.0264 23.4551 49.6568 23.4551H64.4408C65.0711 23.4551 65.6304 23.698 66.1186 24.184C66.6046 24.6722 66.8475 25.2315 66.8475 25.8618V41.9351C66.8475 42.279 66.804 42.6228 66.7169 42.9666C66.6321 43.3104 66.5324 43.6542 66.4178 43.998L61.1746 56.1175C61.06 56.3467 60.9167 56.5186 60.7448 56.6332C60.5729 56.7478 60.3437 56.8051 60.0572 56.8051ZM29.1138 56.8051C28.6554 56.8051 28.3116 56.6195 28.0824 56.2482C27.8532 55.8745 27.8245 55.4872 27.9964 55.0861L33.3256 43.0525H18.7134C18.0831 43.0525 17.525 42.8084 17.039 42.3202C16.5508 41.8343 16.3067 41.2762 16.3067 40.6458V25.8618C16.3067 25.2315 16.5508 24.6722 17.039 24.184C17.525 23.698 18.0831 23.4551 18.7134 23.4551H33.4975C34.1278 23.4551 34.6871 23.698 35.1753 24.184C35.6612 24.6722 35.9042 25.2315 35.9042 25.8618V41.9351C35.9042 42.279 35.8606 42.6228 35.7735 42.9666C35.6887 43.3104 35.589 43.6542 35.4744 43.998L30.2312 56.1175C30.1166 56.3467 29.9734 56.5186 29.8014 56.6332C29.6295 56.7478 29.4003 56.8051 29.1138 56.8051Z" fill="#2B1924"/>
</g>
</svg>
