<svg width="54" height="55" viewBox="0 0 54 55" fill="none" xmlns="http://www.w3.org/2000/svg">
<path fill-rule="evenodd" clip-rule="evenodd" d="M0.386719 27.3296C15.1914 27.3293 27.1928 15.3277 27.1928 0.522972C27.1928 0.522802 27.1928 0.522631 27.1928 0.522461C27.193 0.522461 27.1932 0.522461 27.1934 0.522461C27.1936 0.522461 27.1938 0.522461 27.1941 0.522461C27.1941 0.522632 27.1941 0.522802 27.1941 0.522972C27.1941 15.3276 39.1954 27.3292 54 27.3296C54 27.3304 54 27.3313 54 27.3321C39.1964 27.3325 27.1957 39.3325 27.1941 54.1357C27.1938 54.1357 27.1936 54.1357 27.1934 54.1357C27.1932 54.1357 27.193 54.1357 27.1928 54.1357C27.1912 39.3324 15.1904 27.3324 0.38672 27.3321C0.38672 27.3313 0.386719 27.3304 0.386719 27.3296Z" fill="#4C3243"/>
</svg>
