<svg width="86" height="86" viewBox="0 0 86 86" fill="none" xmlns="http://www.w3.org/2000/svg">
<path fill-rule="evenodd" clip-rule="evenodd" d="M43 0.493164C43 0.4938 43 0.494435 43 0.495071C43 23.9672 62.0279 42.9951 85.5 42.9951C85.5 42.9963 85.5 42.9976 85.5 42.9989C62.0299 42.9989 43.0031 62.0237 43 85.4932C42.9994 85.4932 42.9988 85.4932 42.9981 85.4932C42.995 62.0243 23.9693 42.9999 0.500001 42.9989C0.500001 42.9976 0.5 42.9964 0.5 42.9951C23.9712 42.9941 42.9981 23.9666 42.9981 0.495116C42.9981 0.494466 42.9981 0.493815 42.9981 0.493164C42.9987 0.493164 42.9994 0.493164 43 0.493164C43 0.493164 43 0.493164 43 0.493164Z" fill="#4C3243"/>
</svg>
