<svg width="39" height="41" viewBox="0 0 39 41" fill="none" xmlns="http://www.w3.org/2000/svg">
<path d="M13.7514 3.59249C13.547 2.14368 14.63 0.83179 16.0913 0.758185L21.5256 0.484463C22.9869 0.410858 24.1963 1.60728 24.1385 3.0693L23.974 7.22746C23.8902 9.34658 26.3251 10.5934 27.9955 9.28681L31.2732 6.72304C32.4257 5.82158 34.1034 6.10359 34.8978 7.33232L37.852 11.9017C38.6463 13.1304 38.2149 14.776 36.9199 15.4569L33.2366 17.3936C31.3595 18.3805 31.4971 21.1126 33.4639 21.9059L37.3238 23.4629C38.6807 24.0103 39.2753 25.6042 38.6084 26.9065L36.1283 31.7496C35.4614 33.052 33.8206 33.5011 32.5834 32.72L29.0639 30.4981C27.2706 29.3659 24.9733 30.8511 25.2697 32.9511L25.8512 37.0724C26.0557 38.5212 24.9726 39.8331 23.5113 39.9067L18.077 40.1804C16.6157 40.254 15.4063 39.0576 15.4641 37.5956L15.6286 33.4367C15.7124 31.3176 13.2776 30.0707 11.6071 31.3774L8.32869 33.9417C7.17621 34.8432 5.49855 34.5612 4.70415 33.3324L1.74996 28.7631C0.955558 27.5343 1.38698 25.8888 2.68205 25.2078L6.366 23.2708C8.24312 22.2839 8.1055 19.5518 6.13871 18.7585L2.27948 17.2017C0.922551 16.6544 0.327953 15.0605 0.994865 13.7582L3.47496 8.91506C4.14187 7.61273 5.7827 7.16357 7.01993 7.94466L10.5387 10.1661C12.332 11.2983 14.6292 9.81306 14.3329 7.71309L13.7514 3.59249Z" fill="#E2B3B9" fill-opacity="0.2"/>
</svg>
